# xmcd
#
# Track frame offsets:
#	225
#	17145
#	29574
#	45488
#	67133
#	92339
#	114411
#	132968
#	154063
#	179163
#	198106
#	222794
#	236806
#
# Disc length: 3439 seconds
#
# Revision: 0
# Processed by: cddbd v1.4PL0 Copyright (c) Steve Scherf et al.
# Submitted via: EasyCDDAExtractor 4.5.0.1
#
DISCID=b50d6c0d
DTITLE=Francine Reed - I Got A Right (...to some of my best)
DYEAR=2001
DGENRE=blues
TTITLE0=Been There, Done That
TTITLE1=The Night Life
TTITLE2=One Monkey (Don't Stop No Show)
TTITLE3=Leaving Town
TTITLE4=Crack The Bone
TTITLE5=Trouble In Mind
TTITLE6=I Want You To Love Me
TTITLE7=Stop Me! Before I Love Again
TTITLE8=Wild Women Don't Get The Blues
TTITLE9=Let's Work Together
TTITLE10=What Is That Light?
TTITLE11=Please Send Me Someone To Love
TTITLE12=Out Of The Clear Blue Sky
EXTD=
EXTT0=
EXTT1=
EXTT2=
EXTT3=
EXTT4=
EXTT5=
EXTT6=
EXTT7=
EXTT8=
EXTT9=
EXTT10=
EXTT11=
EXTT12=
PLAYORDER=
